# xmcd
#
# Track frame offsets:
#       150
#       10159
#       21812
#       46492
#       62390
#       73560
#
# Disc length: 1505 seconds
#
# Revision: 0
# Processed by: cddbd v1.5PL3 Copyright (c) Steve Scherf et al.
# Submitted via: CD-DA_X-Tractor v0.23
#
DISCID=4305df06
DTITLE=Brenda Lee - At Her Best Vol.2
DYEAR=1900
DGENRE=
TTITLE0=I'm Sorry
TTITLE1=Silver Threads And Golden Needles
TTITLE2=Medley
TTITLE3=Johnny One Time
TTITLE4=That's All You Gotta Do
TTITLE5=Medley
EXTD=
EXTT0=
EXTT1=
EXTT2=
EXTT3=
EXTT4=
EXTT5=
PLAYORDER=
